<svg xmlns="http://www.w3.org/2000/svg" version="1.1" xmlns:xlink="http://www.w3.org/1999/xlink" xmlns:svgjs="http://svgjs.dev/svgjs" width="100%" height="100%" viewBox="0 0 1000 600"><rect width="1000" height="600" x="0" y="0" fill="#ffffff"/><g><circle r="166.66666666666666" cx="351.41723124186194" cy="373.63945753504834" fill="#00b0d5" transform="matrix(0.6765879002649529,0,0,0.6765879002649529,0,47.200060902314846)"/><path d="M301.2107431330775 448.63946571564924L301.2107431330775 298.6394696724999L398.7136218518668 298.6394696724999L398.7136218518668 317.9441176457827L321.3221525141989 317.9441176457827L321.3221525141989 363.58376300351387L390.4155045140975 363.58376300351387L390.4155045140975 382.8884109767966L321.3221525141989 382.8884109767966L321.3221525141989 429.3348177423665L401.6237255015706 429.3348177423665L401.6237255015706 448.63946571564924L301.2107431330775 448.63946571564924Z " fill="#ffffff" transform="matrix(0.6765879002649529,0,0,0.6765879002649529,0,47.200060902314846)"/><path d="M601.4172365000459 446.2018223536439L601.4172365000459 298.63946960819726L697.3356002516001 298.63946960819726L697.3356002516001 317.63039860156056L621.2018162573108 317.63039860156056L621.2018162573108 362.5283561022881L689.1723352514678 362.5283561022881L689.1723352514678 381.51928509565136L621.2018162573108 381.51928509565136L621.2018162573108 427.21089336028064L700.1984119356742 427.21089336028064L700.1984119356742 446.2018223536439L601.4172365000459 446.2018223536439ZM753.4580471275094 447.84581322172613L753.4580471275094 447.84581322172613Q744.4727866933362 447.84581322172613 735.9977303216709 444.6712101661191Q727.5226739500059 441.4966071105121 722.0238079429723 435.1757456694375L722.0238079429723 435.1757456694375L729.9886602521292 424.149668985231Q735.2891135681873 429.25170961031364 740.9013582557783 431.802729922855Q746.5136029433692 434.3537502353964 752.0124689504026 434.3537502353964L752.0124689504026 434.3537502353964Q756.0941014504689 434.3537502353964 759.5804958776087 433.3333421103799Q763.0385456346091 432.31293398536326 765.1927405651996 429.9886710339368Q767.3185908256506 427.6360634123709 767.3185908256506 423.55443091230467L767.3185908256506 423.55443091230467Q767.3185908256506 419.0476283601484 764.3707451311585 416.4115740371889Q761.4228994366663 413.7471750440903 756.8310628740919 412.13152884614743Q752.2392263115174 410.4875379780652 747.1371856864348 409.0703044710978L747.1371856864348 409.0703044710978Q736.7063470751547 405.5839100439579 731.2074810681212 399.4614612938588Q725.7086150610876 393.33901254375957 725.7086150610876 384.580509470701L725.7086150610876 384.580509470701Q725.7086150610876 377.8344779775361 729.0532861375307 372.02382059896973Q732.4263018841131 366.2131632204034 739.0589546967205 362.5283561022881Q745.691607509328 358.84354898417286 755.4988633775425 358.84354898417286L755.4988633775425 358.84354898417286Q764.2573664506011 358.84354898417286 771.2018106347414 360.99774391476325Q778.1462548188817 363.15193884535375 784.2687035689809 368.0272221093216L784.2687035689809 368.0272221093216L776.7290213119144 379.8752942275692Q773.044214193799 375.99207441847847 767.9421735687164 374.14967085942084Q762.8401329436336 372.3356119705026 758.7585004435675 372.1088546093877L758.7585004435675 372.1088546093877Q755.300450686567 371.91044191841235 752.12584763096 373.12926273440434Q748.9512445753531 374.3764282205356 746.91042832532 376.6156571615441Q744.8696120752869 378.8548861025526 744.8696120752869 381.9161104776022L744.8696120752869 381.9161104776022Q744.8696120752869 386.1961556686438 747.7324237593612 388.8605546617426Q750.5952354434353 391.49660898470194 755.1870720060097 393.0272211722267Q759.7789085685841 394.55783335975156 764.2573664506011 396.2018242278337L764.2573664506011 396.2018242278337Q770.6065725618151 398.0442277868913 775.481855825783 401.10545216194095Q780.3854837598902 404.16667653699056 783.3616741245218 408.64513441900755Q786.309519819014 413.15193697116393 786.309519819014 419.8696237941894L786.309519819014 419.8696237941894Q786.309519819014 427.4376507213954 782.7380913814561 433.8435461728881Q779.1666629438982 440.2777862945201 771.9104273882251 444.0476274230535Q764.6825365026913 447.84581322172613 753.4580471275094 447.84581322172613ZM821.0033960695761 362.13153072033725L821.0033960695761 324.5748427857009L839.9943250629394 324.5748427857009L839.9943250629394 362.13153072033725L863.236954577205 362.13153072033725L863.236954577205 377.01248254349497L839.9943250629394 377.01248254349497L839.9943250629394 446.2018223536439L821.0033960695761 446.2018223536439L821.0033960695761 377.01248254349497L805.4988615033527 377.01248254349497L805.4988615033527 362.13153072033725L821.0033960695761 362.13153072033725ZM925.283437512238 448.242638603677L925.283437512238 448.242638603677Q910.7993110710312 448.242638603677 900.3968171298903 442.43198122511063Q889.9943231887496 436.62132384654427 884.3820785011586 426.5022766067969Q878.7698338135677 416.4115740371889 878.7698338135677 403.34468110294944L878.7698338135677 403.34468110294944Q878.7698338135677 390.9013709117756 885.0906952546424 380.6972896616102Q891.411556695717 370.49320841144487 902.0124633278332 364.37075966134574Q912.6417146300888 358.2483109112465 925.7086075643283 358.2483109112465L925.7086075643283 358.2483109112465Q942.4319629465436 358.2483109112465 953.4580396307501 368.0272221093216Q964.4841163149566 377.8344779775361 968.3389914539079 394.9830034118417L968.3389914539079 394.9830034118417L898.7528262618082 419.47279841223855L894.2743683797911 408.2483090370567L951.417223380717 387.4149764846358L947.335590880651 390.07937547773446Q944.8696045785276 383.3333439845697 939.1723258805188 378.34468204004435Q933.4467025123703 373.3560200955191 924.2630293872215 373.3560200955191L924.2630293872215 373.3560200955191Q916.5249344391794 373.3560200955191 910.4024856890802 377.12586122405236Q904.2800369389811 380.8957023525857 900.7936425118413 387.4149764846358Q897.3355927548408 393.9625952868252 897.3355927548408 402.32427297793294L897.3355927548408 402.32427297793294Q897.3355927548408 411.1111207211308 900.9920552028167 417.7437735337383Q904.676862320932 424.3764263463458 911.111102442564 428.14626747487915Q917.545342564196 431.9161086034124 925.7086075643283 431.9161086034124L925.7086075643283 431.9161086034124Q931.2074735713619 431.9161086034124 936.4228928770019 429.8752923533794Q941.6099675125026 427.8344761033463 946.1167700646589 424.5748390373213L946.1167700646589 424.5748390373213L954.8752731377175 438.6621400965773Q948.5544116966429 442.9421852876189 940.7029380680434 445.57823961057824Q932.851464439444 448.242638603677 925.283437512238 448.242638603677ZM1024.688195690932 448.63946398562786L1023.6677875659155 448.63946398562786L976.7290138151551 361.706360668247L999.1779925655188 361.706360668247L1031.0090571320068 428.8548842283628L1019.3593977047346 428.4580588464119L1048.5544079482634 361.706360668247L1069.784565882635 361.706360668247L1024.688195690932 448.63946398562786ZM1123.2426137654456 448.242638603677L1123.2426137654456 448.242638603677Q1111.4228863173375 448.242638603677 1101.7290091296804 443.14059797859426Q1092.0351319420233 438.03855735351164 1086.4228872544325 428.14626747487915Q1080.8106425668416 418.25397759624656 1080.8106425668416 403.9682638460151L1080.8106425668416 403.9682638460151Q1080.8106425668416 389.8809627867591 1086.7063339558258 379.56350285603634Q1092.6303700149497 369.274387595453 1102.5226598935824 363.7471769182801Q1112.443294442354 358.2483109112465 1124.2630218904624 358.2483109112465L1124.2630218904624 358.2483109112465Q1136.1110940087096 358.2483109112465 1144.274359008842 363.662142907862Q1152.4376240089741 369.0476302343382 1156.7176692000157 376.41724447056873L1156.7176692000157 376.41724447056873L1155.4988483840239 379.6768815365937L1157.3412519430817 361.706360668247L1174.886602759338 361.706360668247L1174.886602759338 446.2018223536439L1155.8956737659748 446.2018223536439L1155.8956737659748 424.149668985231L1157.936490016008 429.05329691933827Q1157.114494581967 431.0941131693714 1154.36506157845 434.2687162249783Q1151.6156285749332 437.414974610446 1147.0237920123589 440.7029563466104Q1142.4319554497843 443.9625934126354 1136.5079193906606 446.0884436730865Q1130.583883331537 448.242638603677 1123.2426137654456 448.242638603677ZM1128.3446543905284 432.53969134647804L1128.3446543905284 432.53969134647804Q1135.4875112656441 432.53969134647804 1141.2131346337924 429.8752923533794Q1146.9104133318015 427.21089336028064 1150.708599130474 422.4206441067308Q1154.4784402590076 417.6303948531809 1155.8956737659748 410.88436336001604L1155.8956737659748 410.88436336001604L1155.8956737659748 394.35942066877607Q1154.280027568032 388.23697191867683 1150.198395067966 383.64513535610246Q1146.1167625678995 379.0532987935281 1140.3911391997513 376.5022784809867Q1134.665515831603 373.95125816844546 1127.749416317602 373.95125816844546L1127.749416317602 373.95125816844546Q1120.181389390396 373.95125816844546 1113.8605279493215 377.6360652865607Q1107.539666508247 381.2925277345366 1103.7698253797134 387.84014653672597Q1099.971639581041 394.35942066877607 1099.971639581041 403.14626841197406L1099.971639581041 403.14626841197406Q1099.971639581041 411.3095334121063 1103.8548593901314 418.0272202351318Q1107.7380791992223 424.77325172829666 1114.2573533312723 428.6564715373874Q1120.804972133462 432.53969134647804 1128.3446543905284 432.53969134647804ZM1149.5748123249 349.8866332201388L1149.5748123249 349.8866332201388Q1143.0555381928502 349.8866332201388 1138.8605270122266 346.91044285550726Q1134.665515831603 343.962597161015 1131.0090533836271 340.70296009499003L1131.0090533836271 340.70296009499003Q1128.543067081504 338.43538648384214 1126.1054254495198 336.5079489143664Q1123.667783817536 334.5805113448908 1120.6065594424863 334.5805113448908L1120.6065594424863 334.5805113448908Q1118.140573140363 334.5805113448908 1116.2131355708875 336.5079489143664Q1114.2573533312723 338.43538648384214 1113.2369452062558 341.9217809109819Q1112.2165370812393 345.3798306679824 1112.2165370812393 350.08504591111426L1112.2165370812393 350.08504591111426L1102.012455831074 350.08504591111426Q1101.4172177581477 342.1201936019574 1103.7698253797134 335.6859534803254Q1106.09408833114 329.25171335869334 1110.6859248937144 325.5952509107174Q1115.2777614562888 321.91044379260217 1121.626967567503 321.91044379260217L1121.626967567503 321.91044379260217Q1126.927420883561 321.91044379260217 1130.8106406926518 324.8866341572337Q1134.665515831603 327.8344798517259 1137.9534975677675 330.89570422677554L1137.9534975677675 330.89570422677554Q1140.7879645817022 333.5601032198743 1143.452363574801 335.6859534803254Q1146.1167625678995 337.8401484109158 1149.1779869429492 337.8401484109158L1149.1779869429492 337.8401484109158Q1153.2596194430153 337.8401484109158 1154.9886443215155 333.5601032198743Q1156.7176692000157 329.25171335869334 1156.7176692000157 321.91044379260217L1156.7176692000157 321.91044379260217L1166.9217504501812 321.91044379260217Q1167.7437458842223 330.4988788448247 1165.589550953632 336.8197402858993Q1163.4637006931807 343.1406017269739 1159.1553108319997 346.5136174735564Q1154.8752656409583 349.8866332201388 1149.5748123249 349.8866332201388ZM1200.3968058847513 403.14626841197406L1200.3968058847513 403.14626841197406Q1200.3968058847513 390.47620085968543 1206.4058759542932 380.2721196095201Q1212.4432906939746 370.0680383593547 1223.0441973260909 364.17234697037026Q1233.645103958207 358.2483109112465 1247.1371669445366 358.2483109112465L1247.1371669445366 358.2483109112465Q1260.9977106426777 358.2483109112465 1271.4002045838188 364.17234697037026Q1281.8310431950986 370.0680383593547 1287.5283218931077 380.2721196095201Q1293.253945261256 390.47620085968543 1293.253945261256 403.14626841197406L1293.253945261256 403.14626841197406Q1293.253945261256 415.7879912941233 1287.5283218931077 426.10545122484604Q1281.8310431950986 436.3945664854295 1271.3151705734008 442.31860254455324Q1260.7992979517026 448.242638603677 1246.9104095834218 448.242638603677L1246.9104095834218 448.242638603677Q1233.4466912672315 448.242638603677 1222.9308186455332 442.630393916086Q1212.4432906939746 437.01814922849513 1206.4058759542932 426.92744665888716Q1200.3968058847513 416.8083994191398 1200.3968058847513 403.14626841197406ZM1219.3593902079756 403.34468110294944L1219.3593902079756 403.34468110294944Q1219.3593902079756 411.5079461030817 1223.0441973260909 418.14059891568917Q1226.729004444206 424.77325172829666 1232.936487204723 428.6564715373874Q1239.1723146353797 432.53969134647804 1246.7119968924462 432.53969134647804L1246.7119968924462 432.53969134647804Q1254.676849201603 432.53969134647804 1260.9126766322597 428.6564715373874Q1267.1201593927772 424.77325172829666 1270.6065538199168 418.14059891568917Q1274.0646035769173 411.5079461030817 1274.0646035769173 403.34468110294944L1274.0646035769173 403.34468110294944Q1274.0646035769173 395.1814161028172 1270.6065538199168 388.5487632902097Q1267.1201593927772 381.9161104776022 1260.9126766322597 377.9478566580935Q1254.676849201603 373.95125816844546 1246.7119968924462 373.95125816844546L1246.7119968924462 373.95125816844546Q1238.9739019444041 373.95125816844546 1232.738074513748 378.0328906685116Q1226.5022470830913 382.1145231685777 1222.9308186455332 388.7471759811852Q1219.3593902079756 395.37982879379257 1219.3593902079756 403.34468110294944Z " fill="black" transform="matrix(0.6765879002649529,0,0,0.6765879002649529,0,47.200060902314846)"/></g></svg>